<svg xmlns="http://www.w3.org/2000/svg" viewBox="0 0 1827.234 201.419">
  <defs>
    <style>
      .cls-1 {
        fill: #4277ce;
      }

      .cls-2 {
        fill: none;
      }

      .cls-3 {
        fill: #4682e3;
      }
    </style>
  </defs>
  <g id="Group_83" data-name="Group 83" transform="translate(0.235 -919.249)">
    <g id="Group_81" data-name="Group 81" transform="translate(0.632)">
      <path id="Path_4" data-name="Path 4" class="cls-1" d="M41.394,995.5C608.822,1103.91,889.542,949.4,889.542,949.4l210.579,64.161,402.243-103.984,272.366,81.859v57.632H41.394Z" transform="translate(-42.027 68.052)"/>
      <path id="Path_3" data-name="Path 3" class="cls-2" d="M57.8,1068.8c181.6-2.009,250.224-52.892,250.224-52.892l794.793,48.923,679.952-89.175,100.179-10.908v157.967L57.8,1094.238Z" transform="translate(-57.748 -4.796)"/>
      <path id="Path_939" data-name="Path 939" class="cls-3" d="M-.866,160.009s57.4-91.774,328.121-50.442,696.313,130.2,917.667,49.6,277.092,20.666,394.935-49.6,186.51-90.906,186.51-90.906V220.078L-.866,218.706Z" transform="translate(0 900.589)"/>
    </g>
  </g>
</svg>
