<svg xmlns="http://www.w3.org/2000/svg" xmlns:xlink="http://www.w3.org/1999/xlink" viewBox="0 0 1828.566 145.582">
  <defs>
    <style>
      .cls-1 {
        fill: #4277ce;
      }

      .cls-2 {
        fill: none;
      }

      .cls-3 {
        fill: url(#linear-gradient);
      }
    </style>
    <linearGradient id="linear-gradient" x1="0.5" x2="0.5" y2="1" gradientUnits="objectBoundingBox">
      <stop offset="0" stop-color="#2c4c80"/>
      <stop offset="1" stop-color="#234274"/>
    </linearGradient>
  </defs>
  <g id="Group_83" data-name="Group 83" transform="translate(1.066 -5366.891)">
    <path id="Path_973" data-name="Path 973" class="cls-1" d="M-7.086,975.069c581.851,108.5,878.108,42.189,878.108,42.189l310.123,9.261,361.591-85.995L1819.545,991.5l-5.8,86.84L-7.086,1079.912Z" transform="translate(7.456 4432.052)"/>
    <path id="Path_979" data-name="Path 979" class="cls-2" d="M855.59,986.241l317.948,18.523,721.313-106.17,99.726-15.614v143.064l-1827.4,1.518Z" transform="translate(-168.247 4484.911)"/>
    <path id="Subtraction_1" data-name="Subtraction 1" class="cls-3" d="M280,438.2h0V361.69c.837.114,36.1,4.229,76.921,8.995,47.064,5.493,105.637,12.33,107.378,12.564,52.848,7.121,106.06,13.384,158.158,18.615,50.1,5.03,100.549,9.246,149.955,12.53,47.37,3.148,95.069,5.525,141.772,7.064,44.643,1.471,89.6,2.217,133.61,2.217,50.04,0,100.386-.963,149.64-2.863,46.125-1.78,92.565-4.43,138.029-7.876,42.187-3.2,84.743-7.173,126.487-11.816,38.247-4.254,76.943-9.2,115.013-14.685,64.6-9.316,128.676-20.336,195.881-33.688,57.727-11.47,107.15-22.53,150.755-32.288l.055-.012c32.013-7.165,59.66-13.352,83.391-18.062,25.829-5.127,44.545-7.982,58.9-8.984,4.833-.338,9.516-.509,13.919-.509a118.663,118.663,0,0,1,28.7,3.106V435.244c-.763,1.138-1.25,1.836-1.38,2.023l-.006.009Z" transform="translate(-281.065 5074)"/>
  </g>
</svg>
