<svg xmlns="http://www.w3.org/2000/svg" viewBox="0 0 666.063 1242">
  <defs>
    <style>
      .cls-1, .cls-2 {
        fill: none;
      }

      .cls-1 {
        stroke: #4277ce;
        stroke-linejoin: round;
        opacity: 0.15;
      }

      .cls-2 {
        opacity: 0.17;
      }

      .cls-3, .cls-4 {
        stroke: none;
      }

      .cls-4 {
        fill: #d239ff;
      }
    </style>
  </defs>
  <g id="Group_88" data-name="Group 88" transform="translate(-1161.937 -2333)">
    <path id="Subtraction_9" data-name="Subtraction 9" class="cls-1" d="M1102.5,1240.5H637.953c-.7-.575-1.426-1.168-2.149-1.764-13.4-11.059-26.423-22.9-38.71-35.182s-24.12-25.308-35.182-38.71c-11.087-13.435-21.645-27.554-31.38-41.964-9.786-14.485-18.972-29.606-27.3-44.944-8.392-15.448-16.115-31.48-22.954-47.65-6.9-16.319-13.069-33.169-18.33-50.082-5.32-17.1-9.839-34.679-13.432-52.24a546.24,546.24,0,0,1-8.261-54.124,553.315,553.315,0,0,1,0-111.468,546.259,546.259,0,0,1,8.261-54.124c3.593-17.561,8.112-35.137,13.432-52.239,5.261-16.914,11.428-33.764,18.33-50.082,6.838-16.168,14.561-32.2,22.954-47.65,8.336-15.344,17.522-30.466,27.3-44.944,9.738-14.415,20.3-28.534,31.38-41.964,11.058-13.4,22.9-26.423,35.182-38.71s25.316-24.129,38.71-35.182c13.428-11.083,27.547-21.641,41.964-31.38,14.478-9.782,29.6-18.968,44.943-27.3,15.446-8.391,31.478-16.114,47.65-22.955,16.317-6.9,33.167-13.069,50.082-18.33,17.1-5.318,34.675-9.837,52.24-13.432a546.606,546.606,0,0,1,54.123-8.26,553.089,553.089,0,0,1,116.695.557,545.894,545.894,0,0,1,59,9.871V1240.5Z" transform="translate(725 2334)"/>
    <path id="Subtraction_8" data-name="Subtraction 8" class="cls-1" d="M1027.5,876.1H634.392a363.6,363.6,0,0,1-61.7-98.24,361.263,361.263,0,0,1-26.681-104.3,368.779,368.779,0,0,1,0-74.312,362.86,362.86,0,0,1,324.37-324.372A369.305,369.305,0,0,1,907.54,273a362.543,362.543,0,0,1,119.96,20.266Z" transform="translate(800 2697.403)"/>
    <path id="Subtraction_7" data-name="Subtraction 7" class="cls-1" d="M976.5,511.694H683.959A181.6,181.6,0,0,1,856.54,273a183.316,183.316,0,0,1,33.639,3.108,180.546,180.546,0,0,1,60.541,23.174,182.826,182.826,0,0,1,25.78,18.944V511.693Z" transform="translate(851 3060.807)"/>
    <g id="Subtraction_3" data-name="Subtraction 3" class="cls-2" transform="translate(1342 2017)">
      <path class="cls-3" d="M485,726h0a206.509,206.509,0,0,1-41.315-4.165,203.88,203.88,0,0,1-73.3-30.846A205.6,205.6,0,0,1,296.11,600.8a203.964,203.964,0,0,1-11.945-38.481,207,207,0,0,1,0-82.629,203.881,203.881,0,0,1,30.846-73.3A205.6,205.6,0,0,1,405.2,332.11a203.965,203.965,0,0,1,38.481-11.945A206.513,206.513,0,0,1,485,316V726Z"/>
      <path class="cls-4" d="M 484.0001831054688 724.9978637695312 L 484.0001831054688 317.0023498535156 C 470.4924926757812 317.0679626464844 457.0012817382812 318.4606628417969 443.885986328125 321.1444396972656 C 430.7880859375 323.8247680664062 417.9049682617188 327.8239135742188 405.5943908691406 333.0309143066406 C 393.5069885253906 338.1434936523438 381.8483581542969 344.4715576171875 370.9424438476562 351.8393859863281 C 360.1400451660156 359.137451171875 349.9818725585938 367.5187072753906 340.7503051757812 376.7503356933594 C 331.5182800292969 385.9824523925781 323.1370849609375 396.1405639648438 315.8393859863281 406.9424438476562 C 308.4714050292969 417.8486022949219 302.1432800292969 429.5072021484375 297.0309143066406 441.5945129394531 C 291.8238830566406 453.9052429199219 287.82470703125 466.7883605957031 285.1444396972656 479.885986328125 C 282.394287109375 493.3256530761719 280.9998779296875 507.1585083007812 280.9998779296875 521.0001220703125 C 280.9998779296875 534.841796875 282.394287109375 548.674560546875 285.1444396972656 562.1142578125 C 287.8247680664062 575.2122192382812 291.823974609375 588.0953979492188 297.0309143066406 600.40576171875 C 302.1435546875 612.4934692382812 308.4716186523438 624.152099609375 315.8393859863281 635.0577392578125 C 323.1375427246094 645.8604125976562 331.5188293457031 656.0185546875 340.7503051757812 665.2499389648438 C 349.9825134277344 674.4820556640625 360.1405944824219 682.86328125 370.9424438476562 690.160888671875 C 381.8487548828125 697.5289306640625 393.5073547363281 703.8569946289062 405.5944519042969 708.9693603515625 C 417.905029296875 714.1763305664062 430.7881774902344 718.175537109375 443.885986328125 720.8557739257812 C 457.0010375976562 723.53955078125 470.4922485351562 724.9322509765625 484.0001831054688 724.9978637695312 M 485.0001831054688 726.0012817382812 L 485.0001831054688 726.0003051757812 C 471.0908813476562 726.0003051757812 457.1906127929688 724.5990600585938 443.6855163574219 721.83544921875 C 430.523193359375 719.1420288085938 417.5763854980469 715.1231079101562 405.2048645019531 709.8903198242188 C 393.0580444335938 704.752685546875 381.3421936035156 698.3934936523438 370.3826599121094 690.989501953125 C 359.5278625488281 683.6561889648438 349.3202514648438 675.2340087890625 340.0431823730469 665.95703125 C 330.7665100097656 656.6804809570312 322.3443908691406 646.4727172851562 315.0107727050781 635.6175537109375 C 307.6066589355469 624.6580810546875 301.24755859375 612.942138671875 296.1099243164062 600.7952880859375 C 290.877197265625 588.4239501953125 286.8583068847656 575.4772338867188 284.1647644042969 562.314697265625 C 281.401123046875 548.8091430664062 279.9998779296875 534.908935546875 279.9998779296875 521.0001220703125 C 279.9998779296875 507.09130859375 281.401123046875 493.1910705566406 284.1647644042969 479.6855163574219 C 286.8582458496094 466.5232543945312 290.877197265625 453.5764465332031 296.1099243164062 441.2049255371094 C 301.2474365234375 429.0581970214844 307.6065979003906 417.34228515625 315.0107727050781 406.3826599121094 C 322.3441772460938 395.52783203125 330.766357421875 385.3201904296875 340.0431823730469 376.0432434082031 C 349.3199157714844 366.7664489746094 359.5276184082031 358.3443603515625 370.3826599121094 351.0107727050781 C 381.3420715332031 343.6067810058594 393.0579833984375 337.2476196289062 405.2048645019531 332.1099243164062 C 417.5763854980469 326.8771362304688 430.523193359375 322.8582458496094 443.6855163574219 320.1647644042969 C 457.1908874511719 317.401123046875 471.0911254882812 315.9999389648438 485.0001831054688 315.9999389648438 L 485.0001831054688 726.0003051757812 L 485.0001831054688 726.0012817382812 Z"/>
    </g>
  </g>
</svg>
